<svg width="1194" height="590" viewBox="0 0 1194 590" fill="none" xmlns="http://www.w3.org/2000/svg">
<path d="M178.32 21.0933C179.347 29.3733 180.4 37.6666 182.68 45.7199C185.6 56.1732 186.733 67.2533 184.08 77.8933C181.147 71.2266 176.613 65.3466 170.48 61.3466C172.533 55.9999 170.453 50.4533 167.907 45.7066C170.8 46.6399 174.213 48.2266 176.933 45.9466C179.453 43.8399 178.507 40.3466 178.133 37.5599C177.2 32.1199 176.827 26.4799 178.32 21.0933Z" fill="white"/>
<path d="M218.747 77.9466C213.267 58.5866 223.8 40.0666 224.267 20.84C226.6 28 224.733 35.48 224.08 42.7333C224.973 47.88 230.96 47.7733 234.667 45.8266C232.44 50.64 230.067 56.1466 232.293 61.4133C226.213 65.4266 221.48 71.1733 218.747 77.9466Z" fill="white"/>
<path d="M63.88 132.96C72.8933 129.347 82.6666 128.32 92.32 128.32C158.987 128.333 225.653 128.333 292.32 128.333C306.627 128.6 321.387 127.093 335.213 131.667C356.747 138.4 373.92 156.16 381.453 177.227C384.92 186.627 386.32 196.667 386.347 206.64C386.32 250.2 386.347 293.76 386.333 337.32C386.093 363.173 387.76 389.32 382.347 414.813C373.32 460.76 348.64 503.947 312.12 533.52C305.56 509.64 291.147 488.013 271.493 472.907C252.067 457.747 227.613 449.187 202.973 448.973C178.707 448.56 154.333 456.053 134.653 470.28C113.227 485.547 97.32 508.333 90.48 533.747C44.0533 496.133 16.6266 436.933 16.6533 377.333C16.68 325.787 16.6666 274.24 16.6666 222.693C16.8666 209.387 15.5333 195.773 19.5333 182.84C25.6133 160.613 42.1733 141.16 63.88 132.96ZM57.88 178.733C50.5333 186.52 50.2133 200.093 57.7066 207.893C63.5733 214.267 71.8666 217.413 79.6133 220.827C82.4933 222.253 85.9333 223.613 87.2666 226.8C87.4 230 84.6533 232.333 81.64 232.587C73.9066 233.507 67.0666 228.68 61.84 223.533C58.1333 228.133 54.4933 232.8 50.8133 237.427C57.52 244.56 66.68 249.56 76.5466 250.12C85.28 250.747 94.88 248.533 100.973 241.867C108.973 233.427 109.173 218.507 100.573 210.413C93.5733 203.613 83.72 201.613 75.4133 197.067C72.8 195.88 70.5733 192.413 73.12 189.987C77.08 186.52 83.0933 187.36 86.9733 190.52C86.9866 192.24 87 193.96 87.0266 195.68C92.9066 195.653 98.7866 195.667 104.667 195.653C104.467 190.8 105.467 185.627 103.347 181.053C100.587 175.72 94.7733 172.84 89.2 171.32C78.4933 168.56 65.7333 170.413 57.88 178.733ZM194.667 171.333C192.88 191.053 191.667 210.84 189.68 230.547C189.627 233 186.227 231.92 184.64 232.6C184.68 238.067 184.667 243.533 184.667 249C191.053 248.8 197.48 249.467 203.827 248.64C208.48 247.893 209.027 242.48 209.173 238.693C209.587 227.04 211.613 215.387 210.64 203.72C213.707 215.04 219 225.533 223.44 236.333C228.64 236.333 233.84 236.333 239.04 236.32C243.373 225.76 248.547 215.507 251.667 204.48C251.36 216.32 252.733 228.093 253.427 239.893C253.587 243.187 254.253 247.707 258.173 248.507C264.6 249.547 271.173 248.773 277.653 249C277.667 243.533 277.667 238.067 277.667 232.6C275.627 232.213 272.133 232.627 272.627 229.52C270.933 210.12 269.453 190.72 267.88 171.32C261.053 171.36 254.227 171.32 247.413 171.347C242.067 185.147 235.8 198.613 231.307 212.72C226.613 198.68 220.467 185.187 215.12 171.4C208.293 171.28 201.48 171.347 194.667 171.333ZM112 171.347C112 176.84 112 182.347 112 187.853C114.227 187.973 116.48 187.987 118.693 188.373C119.427 208.56 118.787 228.8 119 249C125.56 248.987 132.107 249 138.667 249C138.667 238.493 138.653 227.973 138.68 217.467C141.093 217.907 144.48 217.107 145.987 219.64C150.987 228.173 154.373 237.627 159.76 245.92C165.347 251.027 173.8 248.32 180.667 248.987C180.667 243.507 180.667 238.013 180.667 232.533C178.533 232.173 176.067 232.627 174.2 231.373C169.24 224.44 168.013 214.88 160.893 209.547C162.827 207.56 164.72 205.467 165.907 202.92C171.107 192.387 176.413 181.92 181.613 171.387C174.427 171.293 167.227 171.347 160.04 171.333C155.667 180.44 151.44 189.627 146.96 198.693C145.64 201.933 141.413 200.933 138.667 201.547C138.547 193.453 138.88 185.36 138.547 177.28C138.613 173.92 135.427 171.507 132.253 171.493C125.52 171.067 118.747 171.453 112 171.347ZM285.173 231.987C283.773 232.147 282.373 232.32 280.987 232.507C281.013 238 281 243.493 281 248.987C287.2 248.493 294.08 250.373 299.8 247.36C303.573 243.453 304.067 237.587 306.013 232.707C313.4 232.613 320.773 232.693 328.16 232.64C330.373 237.707 330.547 244.307 335.133 247.933C340.96 249.947 347.293 248.653 353.333 249C353.333 243.453 353.32 237.907 353.347 232.373C352.373 232.347 350.4 232.307 349.413 232.293C341.573 212.147 334.747 191.613 327.24 171.333C320.48 171.333 313.72 171.333 306.973 171.347C299.667 191.533 292.427 211.76 285.173 231.987ZM174.8 275.787C167.253 280.853 167.627 293.6 175.307 298.36C178.893 300.88 183.44 300.333 187.507 299.667C185.907 301.373 184.667 303.68 182.347 304.507C179.533 305.587 176.573 304.52 173.773 304.013C172.893 306.867 172 309.72 171.133 312.587C177.587 314.587 185.44 315.12 190.92 310.453C199.067 303.52 201.173 290.76 196.493 281.307C192.653 273.68 181.8 270.813 174.8 275.787ZM238.547 275.627C230.773 280.693 231.227 293.787 239.12 298.533C242.773 300.853 247.24 300.32 251.28 299.6C249.4 301.453 247.893 304.067 245.16 304.733C242.573 305.48 239.947 304.44 237.4 304.013C236.493 306.813 235.587 309.64 234.693 312.453C241.173 314.8 249.173 315.013 254.68 310.28C262.44 303.68 264.333 291.693 260.64 282.493C257.267 274.16 246.027 270.6 238.547 275.627ZM139.667 284.107C141.6 286.173 143.533 288.24 145.467 290.307C146.773 289.04 148.08 287.8 149.387 286.547C149.307 292.693 149.333 298.84 149.333 305C146.56 305 143.787 304.987 141.013 305C141 307.76 140.987 310.52 140.96 313.28C149.867 313.387 158.773 313.333 167.68 313.32C167.667 310.547 167.653 307.773 167.653 305C164.867 304.987 162.107 305 159.333 305C159.333 294.653 159.333 284.32 159.333 273.987C156.213 273.987 153.107 274.027 150 274.12C146.667 277.56 143.093 280.76 139.667 284.107ZM202.987 274.773C201.707 278.333 202.52 282.267 202.333 285.987C205.307 285.987 208.28 285.987 211.267 286C211.307 285.173 211.4 283.52 211.44 282.693C214.293 282.667 217.133 282.64 219.987 282.6C213.947 292.72 208.28 303.053 202.507 313.333C206.213 313.333 209.907 313.333 213.613 313.333C219.16 303.387 224.653 293.413 230.227 283.48C232.147 280.68 231.573 277.2 231.747 274.013C222.2 274.493 212.333 272.973 202.987 274.773ZM93.6666 291.333C93.6666 294.773 93.6666 298.213 93.6666 301.667C104.773 301.667 115.88 301.667 127 301.667C127 298.213 127 294.773 127 291.333C115.893 291.333 104.773 291.333 93.6666 291.333ZM274.667 291.347C274.667 294.773 274.667 298.213 274.667 301.667C285.787 301.667 296.907 301.693 308.027 301.64C308 298.187 307.987 294.733 307.933 291.293C296.84 291.387 285.76 291.307 274.667 291.347ZM194 344.013C194.013 372.787 194.013 401.56 194 430.333C198.547 430.32 203.107 430.32 207.653 430.333C207.667 401.56 207.653 372.787 207.653 344C203.107 344 198.547 344 194 344.013ZM149.16 390.36C153 404.64 157 418.867 160.88 433.133C165.187 431.92 169.507 430.747 173.827 429.587C170.027 415.307 166.027 401.067 162.12 386.813C157.8 387.973 153.467 389.147 149.16 390.36ZM240.68 386.8C236.733 401.04 232.813 415.28 228.933 429.533C233.253 430.773 237.587 431.947 241.947 433.08C245.813 418.827 249.747 404.587 253.667 390.36C249.333 389.173 245.013 387.973 240.68 386.8ZM114.427 424.2C119.56 432.733 124.8 441.213 129.987 449.72C133.853 447.413 137.693 445.067 141.52 442.693C136.32 434.187 131.173 425.667 125.92 417.2C122.067 419.493 118.253 421.867 114.427 424.2ZM276.867 417.187C271.627 425.667 266.48 434.2 261.267 442.68C265.093 445.053 268.933 447.4 272.773 449.773C277.973 441.253 283.187 432.747 288.387 424.24C284.547 421.88 280.72 419.507 276.867 417.187ZM82.88 456.813C89.2533 463.027 95.8266 469.027 102.147 475.28C105.44 472.133 108.533 468.787 111.587 465.413C105.04 459.373 98.6933 453.107 92.1333 447.067C89.08 450.347 85.96 453.547 82.88 456.813ZM291.173 465.64C294.333 468.773 297.387 472.013 300.413 475.293C307.027 469.293 313.333 462.933 319.947 456.92C316.827 453.6 313.747 450.253 310.56 447.027C304.173 453.32 297.48 459.293 291.173 465.64ZM55.2533 490.133C62.8666 493.907 70.44 497.773 78.0933 501.493C80.0666 497.493 82.0533 493.507 84.08 489.533C76.4666 485.76 68.88 481.933 61.28 478.147C59.2533 482.133 57.2666 486.133 55.2533 490.133ZM318.773 489.453C320.747 493.493 322.76 497.52 324.76 501.56C332.347 497.853 339.88 494.04 347.44 490.267C345.44 486.213 343.413 482.173 341.4 478.147C333.853 481.907 326.307 485.667 318.773 489.453Z" fill="white"/>
<path d="M317.12 191.733C318.707 200.227 321.48 208.4 323.92 216.667C319.36 216.667 314.813 216.667 310.253 216.667C312.813 208.44 315.44 200.2 317.12 191.733Z" fill="white"/>
<path d="M180.733 283.147C183.987 280.893 187.933 284.747 188.373 288.027C190.293 291.307 185.64 293.107 183.16 292C179.373 291.213 177.56 285.64 180.733 283.147Z" fill="white"/>
<path d="M244.72 282.947C250.093 279.733 256.093 292.533 248.48 292.28C243.653 292.92 240.213 285.587 244.72 282.947Z" fill="white"/>
<path d="M136.827 485.707C152.067 472.973 171.16 464.947 190.92 462.92C217.2 460.013 244.427 468.24 264.907 484.933C282.867 499.293 295.413 519.96 300.453 542.36C277.547 558.347 250.907 569.133 223.173 572.76C180.88 578.733 137.04 566.827 102.16 542.573C107.067 520.493 119.28 500.04 136.827 485.707Z" fill="white"/>
<path d="M169.613 14.6933C173.347 9.09327 178.427 4.19993 184.507 1.2266C188.427 -0.320071 193.067 3.8666 191.413 7.91994C184.933 28.5866 198.627 48.4799 196.467 69.2533C195.467 85.6399 187.213 100.56 177 113.04C193.227 112.96 209.453 113 225.693 113.013C214.84 99.5066 205.973 83.1333 206.28 65.3599C205.467 46.2666 217.293 27.9466 211.547 8.86659C209.307 4.51992 214.227 -0.986727 218.733 1.46661C225.2 4.93327 230.88 10.2533 234.267 16.8133C237 21.8799 236.307 27.7866 236.333 33.3199C241.053 32.9999 247.187 32.2666 250.44 36.5066C252.653 39.5199 250.307 42.7999 248.427 45.2533C245.56 48.9199 243.4 53.0666 241.987 57.5066C249.48 56.4266 257.52 57.3999 263.867 61.7866C275.293 69.0533 280.12 85.2399 273.84 97.3733C269.48 106.173 259.347 111.907 249.533 110.347C242.6 109.387 236.133 104.253 234.587 97.2799C234.547 94.2266 237.173 91.2133 240.387 91.6133C245.187 91.3333 245.587 97.9733 249.893 98.9733C256.573 100.88 263.627 95.6933 265.16 89.1866C267.787 79.0133 258.88 67.9866 248.387 68.2933C236.8 68.0266 226.933 79.2533 228.173 90.6666C229.293 100.067 236.253 107.893 244.493 112.053C246.467 113.16 248.8 112.973 250.987 113.04C268.813 112.947 286.64 113.027 304.467 113C307.613 113.2 310.333 111.387 313 109.973C321.853 104.987 329.52 97.5999 334 88.3866C339.613 77.7866 333 63.5199 322.173 59.3466C314.587 56.1333 303.84 61.8399 304.627 70.7066C304.293 74.7866 307.48 77.5466 310.92 78.9599C315.72 80.8799 315.533 88.6933 310.907 90.7066C306.893 92.4799 302.667 89.9333 299.427 87.6799C289.947 80.2133 289.307 65.1733 296.08 55.7066C302.88 46.4666 316 42.8666 326.68 46.8666C340.013 51.7066 348.787 65.6799 349.133 79.6133C360.813 75.2133 374.147 76.0799 385.187 81.8666C389.293 84.1466 393.88 86.3733 396.627 90.3199C399.56 95.2799 393.68 102.2 388.387 99.4266C383.133 96.2133 378.187 92.1733 371.973 90.9333C360.667 87.6933 348.107 92.6799 341.227 102C338.053 106.52 334.213 110.507 330.187 114.267C351 118.16 370.04 130.24 382.72 147.16C395.36 163.667 402.147 184.547 401.68 205.32C401.64 260.44 401.68 315.56 401.667 370.68C403.013 421.867 385.6 473.227 353.893 513.373C328.293 545.747 293.013 570.747 253.267 582.32C220.827 591.853 185.747 592.293 153.107 583.427C108.333 571.387 68.8667 542.44 42.04 504.853C14.52 466.547 0.213356 419.147 1.00002 372.04C1.00002 315.587 1.01336 259.12 1.00002 202.667C1.34669 178.84 10.8934 155.067 27.88 138.24C39.88 125.933 55.7333 117.373 72.68 114.333C64.7067 108.147 60.6267 97.9199 51.3734 93.3066C43.1467 88.6533 32.8 89.1466 24.4534 93.2533C20.4934 94.9599 17.32 98.0399 13.4267 99.8533C7.24003 101.56 2.73335 92.6933 7.52002 88.5999C19.72 77.7333 38.0533 73.4666 53.4534 79.6399C54.1867 67.8933 60.0534 56.1466 70.1467 49.7599C79.2534 43.7733 91.9734 43.7199 100.893 50.1066C112.587 57.5733 114.947 76.2133 105.107 86.1066C102.107 88.9866 98.0934 91.5466 93.8 91.2933C88.7734 90.6799 86.44 83.8799 89.9067 80.2666C93.1067 78.0133 97.9067 76.7066 98.0934 71.9866C99.9067 63.1199 89.8667 56.5333 81.9334 58.9066C72.0934 61.7199 65.5733 72.8399 66.9067 82.7866C69.76 93.8266 78.0934 102.773 87.6 108.667C91.1067 110.693 94.68 113.4 98.9467 113.027C117.947 112.853 136.973 113.227 155.96 112.84C166.24 109.267 174.893 99.0533 174.667 87.8266C174.293 76.2799 162.707 66.2799 151.173 68.5999C141.987 70.2933 135.32 80.2399 137.667 89.3866C139.307 95.9333 146.76 101.187 153.427 98.7999C157.427 97.4533 157.96 90.8666 162.893 91.6133C166.827 91.3866 169.187 96.1866 167.573 99.4666C164.013 108.44 152.88 112.68 143.96 109.707C133.373 106.96 125.707 96.3066 126.28 85.4133C126.08 74.2666 133.24 63.5066 143.533 59.2933C148.933 56.8399 155.013 56.8133 160.787 57.5733C159.307 52.2799 156.267 47.6799 153.013 43.3333C150.893 40.9599 151.013 36.6266 153.92 34.9199C157.64 32.5599 162.227 32.9066 166.4 33.4266C166.173 27.0933 165.947 20.2133 169.613 14.6933ZM178.32 21.0933C176.827 26.4799 177.2 32.1199 178.133 37.5599C178.507 40.3466 179.453 43.8399 176.933 45.9466C174.213 48.2266 170.8 46.6399 167.907 45.7066C170.453 50.4533 172.533 55.9999 170.48 61.3466C176.613 65.3466 181.147 71.2266 184.08 77.8933C186.733 67.2533 185.6 56.1733 182.68 45.7199C180.4 37.6666 179.347 29.3733 178.32 21.0933ZM218.747 77.9466C221.48 71.1733 226.213 65.4266 232.293 61.4133C230.067 56.1466 232.44 50.6399 234.667 45.8266C230.96 47.7733 224.973 47.8799 224.08 42.7333C224.733 35.4799 226.6 27.9999 224.267 20.8399C223.8 40.0666 213.267 58.5866 218.747 77.9466ZM63.88 132.96C42.1734 141.16 25.6133 160.613 19.5333 182.84C15.5333 195.773 16.8667 209.387 16.6667 222.693C16.6667 274.24 16.68 325.787 16.6534 377.333C16.6267 436.933 44.0534 496.133 90.48 533.747C97.32 508.333 113.227 485.547 134.653 470.28C154.333 456.053 178.707 448.56 202.973 448.973C227.613 449.187 252.067 457.747 271.493 472.907C291.147 488.013 305.56 509.64 312.12 533.52C348.64 503.947 373.32 460.76 382.347 414.813C387.76 389.32 386.093 363.173 386.333 337.32C386.347 293.76 386.32 250.2 386.347 206.64C386.32 196.667 384.92 186.627 381.453 177.227C373.92 156.16 356.747 138.4 335.213 131.667C321.387 127.093 306.627 128.6 292.32 128.333C225.653 128.333 158.987 128.333 92.32 128.32C82.6667 128.32 72.8934 129.347 63.88 132.96ZM136.827 485.707C119.28 500.04 107.067 520.493 102.16 542.573C137.04 566.827 180.88 578.733 223.173 572.76C250.907 569.133 277.547 558.347 300.453 542.36C295.413 519.96 282.867 499.293 264.907 484.933C244.427 468.24 217.2 460.013 190.92 462.92C171.16 464.947 152.067 472.973 136.827 485.707Z" fill="#302C76"/>
<path d="M57.88 178.733C65.7334 170.413 78.4933 168.56 89.2 171.32C94.7733 172.84 100.587 175.72 103.347 181.053C105.467 185.627 104.467 190.8 104.667 195.653C98.7867 195.667 92.9067 195.653 87.0267 195.68C87 193.96 86.9867 192.24 86.9733 190.52C83.0933 187.36 77.08 186.52 73.12 189.987C70.5733 192.413 72.8 195.88 75.4134 197.067C83.72 201.613 93.5733 203.613 100.573 210.413C109.173 218.507 108.973 233.427 100.973 241.867C94.88 248.533 85.28 250.747 76.5467 250.12C66.68 249.56 57.52 244.56 50.8134 237.427C54.4934 232.8 58.1334 228.133 61.84 223.533C67.0667 228.68 73.9067 233.507 81.64 232.587C84.6533 232.333 87.4 230 87.2667 226.8C85.9334 223.613 82.4934 222.253 79.6134 220.827C71.8667 217.413 63.5734 214.267 57.7067 207.893C50.2134 200.093 50.5334 186.52 57.88 178.733Z" fill="#302C76"/>
<path d="M194.667 171.333C201.48 171.347 208.293 171.28 215.12 171.4C220.467 185.187 226.613 198.68 231.307 212.72C235.8 198.613 242.067 185.147 247.413 171.347C254.227 171.32 261.053 171.36 267.88 171.32C269.453 190.72 270.933 210.12 272.627 229.52C272.133 232.627 275.627 232.213 277.667 232.6C277.667 238.067 277.667 243.533 277.653 249C271.173 248.773 264.6 249.547 258.173 248.507C254.253 247.707 253.587 243.187 253.427 239.893C252.733 228.093 251.36 216.32 251.667 204.48C248.547 215.507 243.373 225.76 239.04 236.32C233.84 236.333 228.64 236.333 223.44 236.333C219 225.533 213.707 215.04 210.64 203.72C211.613 215.387 209.587 227.04 209.173 238.693C209.027 242.48 208.48 247.893 203.827 248.64C197.48 249.467 191.053 248.8 184.667 249C184.667 243.533 184.68 238.067 184.64 232.6C186.227 231.92 189.627 233 189.68 230.547C191.667 210.84 192.88 191.053 194.667 171.333Z" fill="#302C76"/>
<path d="M112 171.347C118.747 171.453 125.52 171.067 132.253 171.493C135.427 171.507 138.613 173.92 138.547 177.28C138.88 185.36 138.547 193.453 138.667 201.547C141.413 200.933 145.64 201.933 146.96 198.693C151.44 189.627 155.667 180.44 160.04 171.333C167.227 171.347 174.427 171.293 181.613 171.387C176.413 181.92 171.107 192.387 165.907 202.92C164.72 205.467 162.827 207.56 160.893 209.547C168.013 214.88 169.24 224.44 174.2 231.373C176.067 232.627 178.533 232.173 180.667 232.533C180.667 238.013 180.667 243.507 180.667 248.987C173.8 248.32 165.347 251.027 159.76 245.92C154.373 237.627 150.987 228.173 145.987 219.64C144.48 217.107 141.093 217.907 138.68 217.467C138.653 227.973 138.667 238.493 138.667 249C132.107 249 125.56 248.987 119 249C118.787 228.8 119.427 208.56 118.693 188.373C116.48 187.987 114.227 187.973 112 187.853C112 182.347 112 176.84 112 171.347Z" fill="#302C76"/>
<path d="M285.173 231.987C292.427 211.76 299.667 191.533 306.973 171.347C313.72 171.333 320.48 171.333 327.24 171.333C334.747 191.613 341.573 212.147 349.413 232.293C350.4 232.307 352.373 232.347 353.347 232.373C353.32 237.907 353.333 243.453 353.333 249C347.293 248.653 340.96 249.947 335.133 247.933C330.547 244.307 330.373 237.707 328.16 232.64C320.773 232.693 313.4 232.613 306.013 232.707C304.067 237.587 303.573 243.453 299.8 247.36C294.08 250.373 287.2 248.493 281 248.987C281 243.493 281.013 238 280.987 232.507C282.373 232.32 283.773 232.147 285.173 231.987ZM317.12 191.733C315.44 200.2 312.813 208.44 310.253 216.667C314.813 216.667 319.36 216.667 323.92 216.667C321.48 208.4 318.707 200.227 317.12 191.733Z" fill="#302C76"/>
<path d="M93.6667 291.333C104.773 291.333 115.893 291.333 127 291.333C127 294.773 127 298.213 127 301.667C115.88 301.667 104.773 301.667 93.6667 301.667C93.6667 298.213 93.6667 294.773 93.6667 291.333Z" fill="#302C76"/>
<path d="M274.667 291.347C285.76 291.307 296.84 291.387 307.933 291.293C307.987 294.733 308 298.187 308.027 301.64C296.907 301.693 285.787 301.667 274.667 301.667C274.667 298.213 274.667 294.773 274.667 291.347Z" fill="#302C76"/>
<path d="M149.16 390.36C153.467 389.147 157.8 387.973 162.12 386.813C166.027 401.067 170.027 415.307 173.827 429.587C169.507 430.747 165.187 431.92 160.88 433.133C157 418.867 153 404.64 149.16 390.36Z" fill="#302C76"/>
<path d="M485.787 198.84C492.173 194.28 501.587 194.587 507.933 199.08C510.907 201.2 510.253 205.16 510.427 208.333C509.227 208.333 506.84 208.32 505.64 208.32C506.187 200.827 496.48 199.133 491.16 201.787C486.667 203.44 484.547 209.853 488.213 213.387C493.907 218.867 502.733 219.547 508.2 225.413C513.933 231.64 511.8 243.093 504.12 246.76C495.8 250.867 485.467 247.933 479.32 241.347C480.4 240.027 481.48 238.707 482.573 237.387C487.267 241.533 493.907 245.4 500.267 242.693C505.413 241.04 507.867 233.813 504.08 229.693C498.253 223.413 488.293 223.04 483.04 216.067C478.987 210.867 480.453 202.587 485.787 198.84Z" fill="black"/>
<path d="M535.533 196.627C548.933 192.36 564.813 200.773 568.16 214.56C572.093 228 564.16 243.893 550.387 247.587C540.453 250.64 528.88 247 522.547 238.747C515.893 230.187 515 217.493 520.507 208.147C523.8 202.547 529.333 198.427 535.533 196.627ZM535.56 202.173C527.907 205.147 522.467 213.053 522.613 221.293C521.893 232.52 531.413 243.773 542.987 243.387C555.507 243.8 565.267 230.827 563.227 218.853C562.12 206.107 547.4 196.88 535.56 202.173Z" fill="black"/>
<path d="M610.8 200.08C611.093 195.027 617.56 196.733 620.973 196.253C620.987 197.92 621 199.6 621.027 201.28C619.427 201.32 617.84 201.387 616.267 201.453C615.64 211.653 616.2 221.88 615.973 232.093C615.84 238.12 612.213 244 606.707 246.547C599.773 249.84 590.88 249.36 584.68 244.693C580.24 241.373 578.227 235.733 578.093 230.347C577.853 220.72 578.107 211.08 577.96 201.453C576.8 201.413 574.48 201.32 573.32 201.28C573.333 200.027 573.333 197.52 573.347 196.253C576.387 196.52 579.8 195.813 582.547 197.493C584.213 200.253 583.533 203.613 583.68 206.68C583.787 215.493 583.36 224.347 583.867 233.16C585.267 243.573 599.867 246.653 606.88 239.92C609.253 237.52 610.587 234.16 610.64 230.787C610.84 220.56 610.413 210.307 610.8 200.08Z" fill="black"/>
<path d="M624.173 196.947C631.293 195.84 638.52 196.507 645.68 196.333C652.467 196.533 659.333 195.76 666.053 197.04C666.587 200.093 666.707 203.2 666.733 206.307C665.067 206.32 663.4 206.347 661.747 206.373C661.653 204.707 661.573 203.067 661.507 201.413C656.88 201.293 652.267 201.32 647.653 201.347C647.68 216.787 647.653 232.227 647.667 247.68C646.333 247.667 643.667 247.667 642.333 247.667C642.333 232.227 642.32 216.787 642.347 201.347C637.8 201.32 633.267 201.267 628.747 201.48C628.72 202.693 628.667 205.12 628.64 206.333C627.387 206.333 624.867 206.32 623.613 206.32C623.613 203.187 623.64 200.04 624.173 196.947Z" fill="black"/>
<path d="M670.027 196.253C673.2 196.773 678.2 195.16 679.867 198.8C680.213 205.747 679.88 212.72 680 219.667C689.667 219.653 699.333 219.667 709.013 219.667C709.093 213.147 708.787 206.613 709.12 200.107C709.347 195.16 715.64 196.653 718.973 196.24C718.973 197.933 718.987 199.64 719.013 201.347C717.907 201.333 715.707 201.32 714.6 201.32C713.973 216.76 714.507 232.227 714.333 247.68C712.533 247.667 710.76 247.653 709 247.653C709 239.88 709 232.107 709 224.333C699.333 224.333 689.667 224.333 680 224.333C680 232.107 680 239.893 680 247.667C678.667 247.667 676 247.667 674.667 247.667C674.653 232.32 674.68 216.973 674.653 201.627C673.08 201.48 671.507 201.333 669.947 201.187C669.973 199.533 670 197.893 670.027 196.253Z" fill="black"/>
<path d="M776.573 196.307C778.653 196.32 780.733 196.32 782.84 196.333C777.587 204.413 773.133 213.04 767.333 220.747C771.6 227.653 774.987 235.04 778.573 242.293C780.16 242.653 781.733 242.96 783.36 243.28C783.347 244.387 783.333 246.627 783.32 247.747C780.44 247.307 776.493 248.627 774.48 245.92C770.187 238.853 767.493 230.893 762.933 224C760.053 223.013 756.973 223.387 754.013 223.28C753.987 231.4 754 239.533 754 247.667C752.213 247.653 750.427 247.653 748.667 247.667C748.6 232.253 748.8 216.84 748.573 201.44C747.427 201.4 745.133 201.32 743.987 201.293C744 200.027 744 197.507 744.013 196.24C747.2 196.827 752.053 195.133 753.813 198.747C754.28 205.387 753.867 212.053 754 218.72C757.053 218.467 760.48 219.24 763.267 217.68C768.107 210.827 771.947 203.32 776.573 196.307Z" fill="black"/>
<path d="M804.8 196.36C806.68 196.347 808.573 196.333 810.467 196.32C815.787 210.64 821.107 224.947 826.413 239.267C827.08 243.04 832.493 243.067 830.787 247.76C828.4 247.427 825.56 248.213 823.56 246.52C820.987 241.84 819.653 236.6 817.627 231.667C810.96 231.653 804.293 231.667 797.64 231.667C795.867 236.267 794.48 241.027 792.387 245.493C791.12 248.467 787.227 247.373 784.733 247.813C784.707 246.733 784.653 244.573 784.613 243.493C786.213 242.867 788.16 242.4 788.453 240.373C793.933 225.72 799.36 211.04 804.8 196.36ZM807.613 202.627C805.547 210.853 802.067 218.64 799.347 226.667C804.92 226.667 810.507 226.68 816.107 226.64C813.293 218.627 809.893 210.813 807.613 202.627Z" fill="black"/>
<path d="M833.92 206.307C834.24 203 832.88 196.92 837.733 196.56C848.853 196.027 860.027 196.48 871.187 196.347C870.973 198.44 871.08 200.733 869.6 202.427C859.813 215.92 850.333 229.653 840.387 243.04C849.2 242.88 858.013 243.2 866.827 242.84C866.907 241.213 866.987 239.587 867.08 237.973C868.72 237.987 870.373 238 872.04 238.013C871.587 241.107 873.387 246.28 869.373 247.493C857.373 247.92 845.347 247.533 833.333 247.667C833.333 246.733 833.333 244.88 833.333 243.96C843.6 229.773 853.52 215.36 863.987 201.333C855.853 201.333 847.707 201.333 839.573 201.333C839.427 202.987 839.347 204.667 839.24 206.347C837.453 206.333 835.68 206.32 833.92 206.307Z" fill="black"/>
<path d="M895.08 196.427C896.88 196.28 898.733 196.307 900.573 196.293C906.187 211.613 911.853 226.907 917.627 242.173C920.76 242.56 921.027 245.053 920.8 247.787C918.493 247.507 915.987 247.973 913.907 246.827C911.027 242.147 909.867 236.64 907.64 231.64C901.013 231.68 894.4 231.667 887.787 231.653C885.813 236.36 884.52 241.36 882.16 245.893C880.48 248.48 877.053 247.373 874.533 247.76C874.253 245.067 874.533 242.587 877.64 242.32C883.787 227.16 888.84 211.533 895.08 196.427ZM889.387 226.667C894.987 226.667 900.573 226.68 906.187 226.653C903.347 218.787 900.187 211.04 897.68 203.053C895.347 211.08 892.173 218.8 889.387 226.667Z" fill="black"/>
<path d="M923.68 196.253C926.867 196.787 931.76 195.173 933.533 198.72C933.893 205.373 933.547 212.04 933.667 218.707C936.72 218.36 940.467 219.453 943.107 217.6C947.827 210.747 951.827 203.4 956.2 196.32C958.307 196.333 960.427 196.333 962.547 196.36C957.4 204.52 952.747 213.027 947.147 220.893C951.4 227.267 954.027 234.547 957.88 241.16C958.76 243.173 961.24 242.76 963 243.28C962.987 244.76 962.973 246.24 962.973 247.733C959.853 247.387 955.427 248.707 953.707 245.2C949.773 238.373 946.987 230.893 942.8 224.213C940.093 222.667 936.667 223.573 933.667 223.293C933.667 231.413 933.667 239.547 933.667 247.667C931.88 247.667 930.093 247.667 928.333 247.667C928.28 232.28 928.44 216.88 928.253 201.493C926.693 201.4 925.16 201.32 923.64 201.253C923.64 199.587 923.653 197.92 923.68 196.253Z" fill="black"/>
<path d="M966.347 196.253C969.507 196.813 974.587 195.093 976.147 198.84C976.627 205.76 976.187 212.72 976.333 219.667C986 219.667 995.667 219.667 1005.33 219.667C1005.47 212.68 1005.04 205.667 1005.53 198.707C1007.32 195.16 1012.12 196.813 1015.32 196.253C1015.33 197.507 1015.33 200.04 1015.35 201.293C1014.21 201.333 1011.96 201.387 1010.84 201.427C1010.44 216.827 1010.77 232.253 1010.67 247.667C1008.88 247.653 1007.09 247.667 1005.33 247.667C1005.32 239.893 1005.33 232.107 1005.33 224.333C995.667 224.333 986 224.333 976.333 224.333C976.32 232.107 976.333 239.893 976.333 247.667C974.533 247.667 972.76 247.667 971 247.667C970.947 232.28 971.093 216.907 970.933 201.52C969.373 201.427 967.827 201.32 966.307 201.24C966.307 199.573 966.32 197.907 966.347 196.253Z" fill="black"/>
<path d="M1023.4 201.893C1028.97 194.333 1040.77 193.813 1048.17 198.84C1051.27 200.96 1051.01 205.027 1051.13 208.333C1049.93 208.333 1047.52 208.347 1046.32 208.347C1046.65 201.867 1038.85 199.453 1033.68 201.093C1028.85 201.933 1024.85 207.853 1027.96 212.293C1033.16 218.88 1042.83 219.093 1048.48 225.24C1054.45 231.147 1052.6 242.28 1045.35 246.32C1037 251.213 1026.2 247.987 1019.79 241.36C1020.91 240 1022.07 238.64 1023.23 237.28C1027.71 241.52 1034.27 245.227 1040.53 242.8C1045.97 241.2 1048.55 233.427 1044.25 229.347C1038.65 223.813 1029.96 222.96 1024.47 217.253C1020.61 213.213 1020.2 206.413 1023.4 201.893Z" fill="black"/>
<path d="M1056.12 197.067C1062.33 195.84 1068.69 196.467 1074.97 196.333C1082.64 196.493 1090.35 195.907 1097.99 196.827C1098.76 199.933 1098.69 203.133 1098.72 206.32C1097.04 206.32 1095.39 206.347 1093.75 206.36C1093.65 204.707 1093.57 203.067 1093.51 201.413C1089 201.293 1084.49 201.32 1080 201.333C1079.99 216.773 1080 232.227 1080 247.667C1078.09 247.653 1076.2 247.653 1074.33 247.653C1074.35 232.213 1074.32 216.773 1074.35 201.347C1069.81 201.32 1065.29 201.28 1060.79 201.453C1060.75 202.68 1060.67 205.107 1060.63 206.333C1059.37 206.333 1056.85 206.32 1055.59 206.32C1055.61 203.227 1055.71 200.133 1056.12 197.067Z" fill="black"/>
<path d="M1114.93 196.32C1116.79 196.32 1118.68 196.333 1120.57 196.347C1126.32 211.627 1131.76 227.04 1137.76 242.227C1140.89 242.573 1140.92 245.173 1140.8 247.787C1138.45 247.453 1135.8 248.093 1133.76 246.68C1131.09 241.96 1129.77 236.64 1127.68 231.667C1121.04 231.667 1114.41 231.68 1107.79 231.653C1105.8 236.373 1104.6 241.427 1102.15 245.933C1100.55 248.573 1096.97 247.32 1094.48 247.76C1093.91 244.707 1095.47 242.88 1097.95 241.587C1103.89 226.627 1109.19 211.373 1114.93 196.32ZM1109.39 226.667C1114.97 226.667 1120.57 226.667 1126.17 226.653C1123.4 218.627 1119.99 210.827 1117.69 202.64C1115.57 210.853 1112.21 218.68 1109.39 226.667Z" fill="black"/>
<path d="M1148.67 196.333C1150.29 196.333 1151.95 196.333 1153.61 196.333C1163.6 210.653 1174.49 224.373 1183.72 239.2C1182.88 227.48 1183.56 215.72 1183.31 203.973C1183.47 201.813 1182.91 199.293 1184.35 197.467C1187.07 195.947 1190.29 196.44 1193.29 196.253C1193.31 197.867 1193.33 199.48 1193.39 201.093C1191.95 201.627 1188.55 200.627 1188.72 202.987C1188.59 217.867 1188.69 232.76 1188.68 247.64C1187 247.64 1185.35 247.653 1183.72 247.68C1173.88 233.533 1163.28 219.907 1153.93 205.44C1154.72 216.04 1154.15 226.68 1154.35 237.293C1154.23 240.307 1154.71 243.467 1153.57 246.333C1151.07 248.707 1147.11 247.293 1143.99 247.68C1143.96 246.133 1143.99 244.613 1144 243.093C1145.15 243.013 1147.45 242.867 1148.61 242.787C1148.75 227.307 1148.63 211.813 1148.67 196.333Z" fill="black"/>
<path d="M734.56 305.28C745.32 295.213 762.08 293.88 775.293 299.48C779.467 301.227 783.547 304.427 784.693 309C785.28 312.52 784.92 316.107 785 319.667C781.027 319.667 777.067 319.653 773.107 319.68C772.96 316.693 773.52 312.987 770.413 311.307C761.493 306 748.667 307.853 742.147 316.133C732.973 327.64 736.973 347.307 750.573 353.56C760.72 358.36 772.813 353.92 780.347 346.347C782.733 349.533 785.08 352.733 787.373 356C780.133 362.933 770.493 367.64 760.347 367.707C749.907 368.16 739.147 364.093 732.307 356.053C720.147 341.893 720.587 318.093 734.56 305.28Z" fill="black"/>
<path d="M488.52 302.507C488.773 300.813 488.493 298.947 489.347 297.413C493.733 297.187 498.133 297.373 502.533 297.333C508.213 311.293 514.96 324.827 519.96 339.053C525.053 324.853 531.707 311.28 537.453 297.333C541.96 297.333 546.467 297.333 550.973 297.333C552.813 316.667 553.573 336.147 556.027 355.413C557.187 355.387 559.507 355.32 560.667 355.293C560.667 359.08 560.667 362.867 560.667 366.653C555.56 366.307 550.067 367.613 545.24 365.64C541.987 363.16 543.013 358.36 542.387 354.787C541.653 342.92 540.28 331.093 540.133 319.2C536.72 331.587 530.213 342.827 525.333 354.667C521.787 354.653 518.24 354.653 514.693 354.707C509.6 342.92 503.507 331.52 499.667 319.24C499.853 332 498.053 344.68 497.373 357.4C497.067 360.493 497.28 365.04 493.587 366.187C488.907 367.147 484.067 366.507 479.333 366.653C479.333 362.907 479.333 359.147 479.333 355.413C480.973 355.307 482.613 355.227 484.28 355.133C485.84 337.6 487.147 320.053 488.52 302.507Z" fill="black"/>
<path d="M565.333 297.333C579.267 297.347 593.2 297.307 607.147 297.347C609.92 297.107 613.187 298.52 613.533 301.613C613.867 305.96 613.6 310.32 613.653 314.667C609.76 314.667 605.88 314.667 602 314.667C601.987 312.72 601.973 310.787 601.973 308.867C596.253 307.867 590.427 308.48 584.667 308.333C584.667 314.227 584.667 320.107 584.667 326C592.107 326 599.547 326 606.987 326C607 329.773 607 333.547 607 337.333C599.547 337.333 592.107 337.333 584.667 337.347C584.693 343.307 584.547 349.28 584.827 355.24C591.253 355.387 597.693 355.36 604.133 355.28C604.44 353.187 604.653 351.08 604.853 348.987C608.667 349 612.493 349 616.32 349C616.173 353.693 616.787 358.48 615.893 363.133C614.987 366.32 611.24 366.64 608.52 366.667C598.213 366.613 587.893 366.813 577.6 366.573C574.547 366.8 571.427 364.493 571.693 361.253C571.627 343.613 571.68 325.987 571.68 308.347C569.56 308.333 567.44 308.32 565.333 308.32C565.32 304.653 565.333 301 565.333 297.333Z" fill="black"/>
<path d="M621.667 297.333C631.453 297.347 641.253 297.293 651.04 297.347C660.12 297.493 669.653 300.2 676.12 306.88C684.267 314.867 686.333 327.187 684.867 338.107C683.747 347.587 678.613 356.893 670.133 361.653C662 366.52 652.213 366.827 643 366.68C639.08 366.533 635.027 367.133 631.213 366.013C628.36 364.813 627.933 361.507 628 358.787C627.987 341.973 628.013 325.147 628 308.333C625.88 308.32 623.76 308.333 621.667 308.333C621.667 304.667 621.667 301 621.667 297.333ZM640.987 308.347C641.227 323.987 640.547 339.653 641.347 355.267C648.28 355.347 655.853 356.147 662.013 352.24C668.453 348.293 671.653 340.693 671.693 333.333C672.107 325.493 669.68 316.64 662.747 312.173C656.387 307.813 648.333 308.28 640.987 308.347Z" fill="black"/>
<path d="M691.333 297.333C700.107 297.333 708.88 297.333 717.667 297.333C717.653 301 717.653 304.667 717.667 308.333C715.32 308.333 712.987 308.32 710.667 308.333C710.667 324 710.667 339.667 710.667 355.333C712.987 355.333 715.32 355.333 717.667 355.333C717.653 359.107 717.667 362.88 717.667 366.667C708.88 366.667 700.107 366.667 691.333 366.667C691.32 362.88 691.333 359.107 691.333 355.333C693.667 355.333 695.987 355.32 698.333 355.333C698.333 339.667 698.32 324.013 698.347 308.347C696 308.333 693.653 308.32 691.333 308.333C691.32 304.653 691.333 301 691.333 297.333Z" fill="black"/>
<path d="M814.973 297.333C819.507 297.333 824.027 297.333 828.573 297.333C835.56 316.613 842.52 335.907 849.68 355.133C850.6 355.2 852.427 355.347 853.347 355.427C853.32 359.16 853.32 362.92 853.333 366.667C848.827 366.28 843.4 367.827 839.6 364.827C836.48 360.013 835.413 354.187 833.173 348.96C825.547 349.027 817.933 348.987 810.32 348.987C808.24 353.96 806.947 359.267 804.507 364.067C800.907 368.107 794.747 366.213 790 366.667C790 362.893 789.987 359.133 789.987 355.36C790.907 355.333 792.747 355.293 793.667 355.267C800.933 336.013 807.773 316.6 814.973 297.333ZM813.387 338C818.973 338 824.56 338.013 830.147 337.987C827.32 329.093 823.773 320.427 821.72 311.307C819.6 320.4 816.24 329.133 813.387 338Z" fill="black"/>
<path d="M856.667 297.347C861.827 297.507 867.08 296.88 872.213 297.707C875.133 298.2 875.893 301.533 875.96 304.053C876.147 320.893 875.787 337.76 876.12 354.587L876.747 355.2C882.787 355.467 888.88 355.52 894.933 355C894.96 352.987 894.987 350.987 895.027 349C898.893 349 902.76 349 906.653 349C906.573 353.533 906.92 358.093 906.453 362.613C906.04 366.147 901.947 366.653 899.107 366.653C888.96 366.613 878.787 366.827 868.653 366.547C865.773 366.627 862.853 364.533 863.04 361.467C862.827 344.52 863.24 327.547 862.853 310.6C862.773 307.4 858.693 308.653 856.667 308.2C856.667 304.573 856.653 300.96 856.667 297.347Z" fill="black"/>
<path d="M503.373 413.68C507.88 413.653 512.4 413.667 516.92 413.667C523.773 432.453 530.52 451.267 537.48 470C537.973 472.04 540.507 471.64 542.027 472.427C541.987 475.947 541.987 479.467 542 483C537.293 482.44 531.213 484.587 527.587 480.707C524.84 475.92 523.68 470.413 521.56 465.333C513.947 465.333 506.333 465.333 498.72 465.333C496.413 470.587 495.427 476.507 492.227 481.32C488.253 484.187 482.907 482.6 478.347 483C478.333 479.48 478.333 475.96 478.28 472.453C480.133 471.84 482.64 471.72 482.987 469.293C489.84 450.773 496.533 432.2 503.373 413.68ZM501.707 454.667C507.373 454.667 513.04 454.667 518.707 454.667C515.68 445.733 512.293 436.907 510.067 427.733C508.04 436.933 504.6 445.72 501.707 454.667Z" fill="black"/>
<path d="M555.68 420.787C566.427 411.427 582.48 410.533 595.28 415.84C599.413 417.667 603.613 420.773 604.707 425.4C605.24 428.893 604.947 432.467 605 436C601.013 435.987 597.04 436 593.08 436C592.867 433.253 593.747 429.773 590.893 428.093C582.093 422.253 568.813 424.16 562.2 432.52C555.333 441.267 555.707 454.627 562.453 463.347C567.16 469.64 575.44 473.093 583.227 471.707C589.827 470.813 595.613 467.187 600.493 462.853C602.787 466 605.093 469.147 607.387 472.307C599.893 479.667 589.64 484.48 579.013 484.053C566.547 484.453 554.04 477.573 548.213 466.453C540.24 451.893 542.627 431.64 555.68 420.787Z" fill="black"/>
<path d="M634.987 413.667C639.52 413.667 644.053 413.653 648.6 413.693C654.627 430.44 660.8 447.133 666.813 463.907C668.227 467.373 668.733 472.6 673.667 472.333C673.667 475.88 673.653 479.44 673.667 483C668.813 482.44 662.267 484.747 658.853 480.213C656.573 475.427 655.12 470.28 653.253 465.333C645.573 465.387 637.893 465.187 630.227 465.467C628.213 470.76 626.907 476.427 623.973 481.293C619.947 484.187 614.6 482.6 610.013 483C610 479.467 610 475.947 609.947 472.427C611.907 471.987 614.333 471.48 614.72 469.107C621.493 450.64 628.253 432.16 634.987 413.667ZM633.293 454.667C638.96 454.667 644.627 454.667 650.293 454.667C647.427 445.707 643.867 436.96 641.747 427.76C639.613 436.933 636.36 445.787 633.293 454.667Z" fill="black"/>
<path d="M676.667 413.667C686.707 413.733 696.76 413.533 706.8 413.76C716.387 414.133 726.453 417.467 732.667 425.133C739.88 433.76 741.12 445.893 739.36 456.64C737.68 466.987 730.6 476.427 720.693 480.147C710.827 484.16 700.013 482.8 689.64 482.987C686.333 483.373 682.613 481.12 683.027 477.427C682.947 459.96 683.027 442.48 683 425C680.88 424.987 678.773 424.987 676.667 425C676.667 421.213 676.653 417.44 676.667 413.667ZM696 425.013C695.973 440.467 696.027 455.92 695.973 471.373C701.76 472.64 707.907 472.067 713.52 470.24C720.787 467.76 725.467 460.467 726.227 453.013C727.6 443.907 725.173 432.853 716.613 427.987C710.427 424.147 702.92 425.027 696 425.013Z" fill="black"/>
<path d="M746 413.667C759.667 413.68 773.333 413.653 787 413.667C789.747 413.587 793.32 414.253 794.027 417.427C794.68 422.027 794.2 426.693 794.32 431.333C790.467 431.32 786.627 431.32 782.8 431.333C782.147 429.427 783.64 426.173 781.493 425.147C776.12 424.76 770.72 425.093 765.333 425C765.333 430.893 765.32 436.773 765.333 442.667C772.773 442.667 780.213 442.667 787.667 442.667C787.653 446.333 787.653 450 787.667 453.667C780.213 453.667 772.773 453.667 765.333 453.667C765.32 459.573 765.333 465.493 765.32 471.4C771.8 472.373 778.533 472.347 785.027 471.413C785 469.48 784.987 467.573 784.973 465.667C788.973 465.667 792.987 465.667 797 465.667C796.867 470.227 797.387 474.853 796.587 479.36C795.907 482.453 792.293 483.133 789.613 483.013C778.973 482.92 768.32 483.16 757.693 482.893C753.853 483.107 751.72 479.28 752.08 475.867C751.867 458.92 752.067 441.96 752 425C749.987 424.987 747.987 424.987 746 425C745.987 421.213 745.987 417.44 746 413.667Z" fill="black"/>
<path d="M811.427 413.64C815.907 413.68 820.387 413.667 824.867 413.667C830.6 427.64 837.24 441.253 842.413 455.48C847.387 441.213 854.12 427.64 859.853 413.68C864.347 413.653 868.84 413.653 873.347 413.68C874.92 432.213 876.227 450.76 877.84 469.293C877.373 472.507 880.947 471.733 883 472.227C882.987 475.813 882.987 479.4 883 482.987C878.173 482.76 873.24 483.6 868.52 482.493C865.307 481.507 865.32 477.587 865.04 474.867C864.307 461.893 862.6 448.973 862.613 435.973C858.707 448.093 852.773 459.413 847.64 471.027C844.08 470.987 840.533 470.987 836.987 471.013C831.933 459.213 825.827 447.827 821.973 435.56C822.173 449.053 820.36 462.48 819.573 475.933C819.613 478.907 818.32 482.653 814.84 482.853C810.453 483.213 806.053 482.933 801.667 482.987C801.653 479.387 801.653 475.787 801.667 472.2C803.573 471.893 807.093 472.427 806.853 469.427C808.507 450.84 809.733 432.213 811.427 413.64Z" fill="black"/>
<path d="M883.667 413.653C888.747 413.973 895.653 412.187 898.773 417.493C903.653 425.36 908.573 433.24 912.88 441.453C916.587 434.293 920.867 427.467 924.893 420.493C926.44 418 927.947 414.987 931.013 414.147C934.613 413.387 938.333 413.707 942 413.653C941.987 417.373 941.987 421.093 942.013 424.813C940.04 425.2 937.28 424.387 936.133 426.56C930.507 435.213 924.933 443.947 919.56 452.773C919 462.813 919.507 472.933 919.333 483C915 483 910.667 482.987 906.347 483C906.24 473.04 906.507 463.067 906.227 453.107C901.027 444.107 895.2 435.453 889.627 426.68C888.52 424.307 885.68 425.213 883.64 424.84C883.667 421.107 883.667 417.387 883.667 413.653Z" fill="black"/>
<path d="M174.8 275.787C181.8 270.813 192.653 273.68 196.493 281.307C201.173 290.76 199.067 303.52 190.92 310.453C185.44 315.12 177.587 314.587 171.133 312.587C172 309.72 172.893 306.867 173.773 304.013C176.573 304.52 179.533 305.587 182.347 304.507C184.667 303.68 185.907 301.373 187.507 299.667C183.44 300.333 178.893 300.88 175.307 298.36C167.627 293.6 167.253 280.853 174.8 275.787ZM180.733 283.147C177.56 285.64 179.373 291.213 183.16 292C185.64 293.107 190.293 291.307 188.373 288.027C187.933 284.747 183.987 280.893 180.733 283.147Z" fill="#302C75"/>
<path d="M238.547 275.627C246.027 270.6 257.267 274.16 260.64 282.493C264.333 291.693 262.44 303.68 254.68 310.28C249.173 315.013 241.173 314.8 234.693 312.453C235.587 309.64 236.493 306.813 237.4 304.013C239.947 304.44 242.573 305.48 245.16 304.733C247.893 304.067 249.4 301.453 251.28 299.6C247.24 300.32 242.773 300.853 239.12 298.533C231.227 293.787 230.773 280.693 238.547 275.627ZM244.72 282.947C240.213 285.587 243.653 292.92 248.48 292.28C256.093 292.533 250.093 279.733 244.72 282.947Z" fill="#302C75"/>
<path d="M139.667 284.107C143.093 280.76 146.667 277.56 150 274.12C153.107 274.027 156.213 273.987 159.333 273.987C159.333 284.32 159.333 294.653 159.333 305C162.107 305 164.867 304.987 167.653 305C167.653 307.773 167.667 310.547 167.68 313.32C158.773 313.333 149.867 313.387 140.96 313.28C140.987 310.52 141 307.76 141.013 305C143.787 304.987 146.56 305 149.333 305C149.333 298.84 149.307 292.693 149.387 286.547C148.08 287.8 146.773 289.04 145.467 290.307C143.533 288.24 141.6 286.173 139.667 284.107Z" fill="#302C75"/>
<path d="M202.987 274.773C212.333 272.973 222.2 274.493 231.747 274.013C231.573 277.2 232.147 280.68 230.227 283.48C224.653 293.413 219.16 303.387 213.613 313.333C209.907 313.333 206.213 313.333 202.507 313.333C208.28 303.053 213.947 292.72 219.987 282.6C217.133 282.64 214.293 282.667 211.44 282.693C211.4 283.52 211.307 285.173 211.267 286C208.28 285.987 205.307 285.987 202.333 285.987C202.52 282.267 201.707 278.333 202.987 274.773Z" fill="#302C75"/>
<path d="M240.68 386.8C245.013 387.973 249.333 389.173 253.667 390.36C249.747 404.587 245.813 418.827 241.947 433.08C237.587 431.947 233.253 430.773 228.933 429.533C232.813 415.28 236.733 401.04 240.68 386.8Z" fill="#302C75"/>
<path d="M291.173 465.64C297.48 459.293 304.173 453.32 310.56 447.027C313.747 450.253 316.827 453.6 319.947 456.92C313.333 462.933 307.027 469.293 300.413 475.293C297.387 472.013 294.333 468.773 291.173 465.64Z" fill="#302C75"/>
<path d="M55.2533 490.133C57.2666 486.133 59.2533 482.133 61.28 478.147C68.88 481.933 76.4666 485.76 84.08 489.533C82.0533 493.507 80.0666 497.493 78.0933 501.493C70.44 497.773 62.8666 493.907 55.2533 490.133Z" fill="#302C75"/>
<path d="M194 344.013C198.547 344 203.107 344 207.653 344C207.653 372.787 207.667 401.56 207.653 430.333C203.107 430.32 198.547 430.32 194 430.333C194.013 401.56 194.013 372.787 194 344.013Z" fill="#2F2B75"/>
<path d="M114.427 424.2C118.253 421.867 122.067 419.493 125.92 417.2C131.173 425.667 136.32 434.187 141.52 442.693C137.693 445.067 133.853 447.413 129.987 449.72C124.8 441.213 119.56 432.733 114.427 424.2Z" fill="#2F2C75"/>
<path d="M276.867 417.187C280.72 419.507 284.547 421.88 288.387 424.24C283.187 432.747 277.973 441.253 272.773 449.773C268.933 447.4 265.093 445.053 261.267 442.68C266.48 434.2 271.627 425.667 276.867 417.187Z" fill="#2F2C75"/>
<path d="M82.88 456.813C85.96 453.547 89.08 450.347 92.1333 447.067C98.6933 453.107 105.04 459.373 111.587 465.413C108.533 468.787 105.44 472.133 102.147 475.28C95.8267 469.027 89.2533 463.027 82.88 456.813Z" fill="#2F2C75"/>
<path d="M318.773 489.453C326.307 485.667 333.853 481.907 341.4 478.147C343.413 482.173 345.44 486.213 347.44 490.267C339.88 494.04 332.347 497.853 324.76 501.56C322.76 497.52 320.747 493.493 318.773 489.453Z" fill="#2F2C75"/>
</svg>
